<?xml version="1.0" encoding="UTF-8"?>
<!DOCTYPE svg PUBLIC "-//W3C//DTD SVG 1.1//EN" "http://www.w3.org/Graphics/SVG/1.1/DTD/svg11.dtd">
<svg xmlns="http://www.w3.org/2000/svg" version="1.1" width="700px" height="700px" style="shape-rendering:geometricPrecision; text-rendering:geometricPrecision; image-rendering:optimizeQuality; fill-rule:evenodd; clip-rule:evenodd" xmlns:xlink="http://www.w3.org/1999/xlink">
<defs>
  <filter id="glow" x="-50%" y="-50%" width="400%" height="400%"><feGaussianBlur in="SourceGraphic" stdDeviation="10" result="blurred"></feGaussianBlur><feMerge><feMergeNode in="blurred"></feMergeNode><feMergeNode in="blurred"></feMergeNode></feMerge></filter>
</defs>
<!-- glow -->
<g><path filter="url(#glow)" fill="#ffbe0b" style="opacity:0.7" d="M 409.5,58.5 C 405.545,58.707 402.712,57.0403 401,53.5C 400.5,54 400,54.5 399.5,55C 399.5,63 399.5,71 399.5,79C 399.833,79.1667 400.167,79.3333 400.5,79.5C 401.167,78.1667 401.833,76.8333 402.5,75.5C 403.308,75.8076 403.975,76.3076 404.5,77C 403.929,80.5479 403.596,84.3813 403.5,88.5C 398.444,76.626 389.444,69.7927 376.5,68C 360.952,66.5783 345.952,68.745 331.5,74.5C 329.804,74.3146 328.471,73.4813 327.5,72C 327.177,65.3187 327.51,58.4854 328.5,51.5C 350.206,43.3317 372.206,42.4984 394.5,49C 400.241,51.1923 405.241,54.359 409.5,58.5 Z"/></g>
<g><path filter="url(#glow)" fill="#ffbe0b" style="opacity:0.7" d="M 328.5,51.5 C 327.51,58.4854 327.177,65.3187 327.5,72C 328.471,73.4813 329.804,74.3146 331.5,74.5C 325.004,77.8136 319.171,82.1469 314,87.5C 309.206,95.5904 304.039,103.424 298.5,111C 291.003,114.559 284.669,113.059 279.5,106.5C 280.598,97.6177 280.598,88.7843 279.5,80C 280.094,79.5357 280.761,79.369 281.5,79.5C 284.075,80.5678 286.242,82.2345 288,84.5C 297.446,68.5571 310.946,57.5571 328.5,51.5 Z"/></g>
<g><path filter="url(#glow)" fill="#ffbe0b" style="opacity:0.7" d="M 409.5,58.5 C 419.547,67.5855 425.714,78.9188 428,92.5C 428.997,98.4611 429.663,104.461 430,110.5C 432.301,109.133 434.801,108.466 437.5,108.5C 437.082,109.222 436.416,109.722 435.5,110C 435.5,116.667 435.5,123.333 435.5,130C 436.044,130.717 436.711,131.217 437.5,131.5C 430.909,134.309 424.075,136.642 417,138.5C 409.644,137.976 405.811,133.976 405.5,126.5C 407.29,113.667 406.624,101 403.5,88.5C 403.596,84.3813 403.929,80.5479 404.5,77C 403.975,76.3076 403.308,75.8076 402.5,75.5C 401.833,76.8333 401.167,78.1667 400.5,79.5C 400.167,79.3333 399.833,79.1667 399.5,79C 399.5,71 399.5,63 399.5,55C 400,54.5 400.5,54 401,53.5C 402.712,57.0403 405.545,58.707 409.5,58.5 Z"/></g>
<g><path filter="url(#glow)" fill="#ffbe0b" style="opacity:0.7" d="M 281.5,79.5 C 280.761,79.369 280.094,79.5357 279.5,80C 280.598,88.7843 280.598,97.6177 279.5,106.5C 273.547,101.518 267.214,97.0183 260.5,93C 252.622,90.3989 244.622,89.8989 236.5,91.5C 234.571,91.7692 232.905,91.2692 231.5,90C 231.177,83.3187 231.51,76.4854 232.5,69.5C 250.542,64.9081 266.876,68.2414 281.5,79.5 Z"/></g>
<g><path filter="url(#glow)" fill="#ffbe0b" style="opacity:0.7" d="M 232.5,69.5 C 231.51,76.4854 231.177,83.3187 231.5,90C 232.905,91.2692 234.571,91.7692 236.5,91.5C 217.216,99.7156 209.05,114.382 212,135.5C 213.798,141.895 215.798,148.228 218,154.5C 219.769,161.126 217.603,165.96 211.5,169C 200.442,168.503 190.442,171.336 181.5,177.5C 181.5,168.833 181.5,160.167 181.5,151.5C 184.659,149.996 187.993,148.663 191.5,147.5C 183.238,118.788 190.904,95.2876 214.5,77C 220.056,73.426 226.056,70.926 232.5,69.5 Z"/></g>
<g><path filter="url(#glow)" fill="#ffbe0b" style="opacity:0.7" d="M 487.5,138.5 C 486.686,136.219 485.352,134.219 483.5,132.5C 482.107,134.674 482.44,136.507 484.5,138C 481.833,140 481.833,142 484.5,144C 481.833,146 481.833,148 484.5,150C 481.833,151.333 481.833,152.667 484.5,154C 481.833,155.333 481.833,156.667 484.5,158C 481.833,159.333 481.833,160.667 484.5,162C 481.833,163.333 481.833,164.667 484.5,166C 481.833,167.333 481.833,168.667 484.5,170C 483.692,170.308 483.025,170.808 482.5,171.5C 484.631,172.169 486.631,172.835 488.5,173.5C 482.95,173.237 477.45,173.57 472,174.5C 464.597,173.888 460.764,169.888 460.5,162.5C 462.26,156.383 463.927,150.216 465.5,144C 464.104,136.941 459.771,132.941 452.5,132C 447.509,130.497 442.509,130.33 437.5,131.5C 436.711,131.217 436.044,130.717 435.5,130C 435.5,123.333 435.5,116.667 435.5,110C 436.416,109.722 437.082,109.222 437.5,108.5C 454.178,106.448 468.678,111.115 481,122.5C 484.56,127.284 486.727,132.617 487.5,138.5 Z"/></g>
<g><path filter="url(#glow)" fill="#ffbe0b" style="opacity:0.7" d="M 181.5,151.5 C 181.5,160.167 181.5,168.833 181.5,177.5C 172.034,189.736 172.368,201.57 182.5,213C 187.334,216.252 192.334,219.252 197.5,222C 203.737,227.697 204.07,233.697 198.5,240C 189.247,242.71 180.747,246.877 173,252.5C 167.511,258.814 164.178,266.147 163,274.5C 161.791,293.83 163.791,312.83 169,331.5C 171.074,339.713 175.574,346.046 182.5,350.5C 181.188,358.068 181.188,365.735 182.5,373.5C 168.535,371.434 158.368,364.101 152,351.5C 141.016,323.959 137.35,295.626 141,266.5C 144.392,250.706 152.559,238.039 165.5,228.5C 149.651,211.064 147.151,191.73 158,170.5C 163.498,161.181 171.331,154.848 181.5,151.5 Z"/></g>
<g><path filter="url(#glow)" fill="#ffbe0b" style="opacity:0.7" d="M 514.5,160.5 C 519.15,162.985 522.65,166.652 525,171.5C 531.576,184.983 532.076,198.649 526.5,212.5C 525.957,212.56 525.624,212.893 525.5,213.5C 530.792,214.495 536.125,214.828 541.5,214.5C 541.736,221.382 541.736,228.215 541.5,235C 553.674,235.169 565.674,235.669 577.5,236.5C 557.156,236.167 536.822,236.5 516.5,237.5C 517.646,244.436 518.312,251.436 518.5,258.5C 526.167,258.5 533.833,258.5 541.5,258.5C 541.833,265.833 542.167,273.167 542.5,280.5C 534.981,280.175 527.648,280.508 520.5,281.5C 524.643,321.407 528.31,361.407 531.5,401.5C 530.778,401.082 530.278,400.416 530,399.5C 529.833,401 529.667,402.5 529.5,404C 529.629,405.981 530.296,407.647 531.5,409C 528.833,410.333 528.833,411.667 531.5,413C 528.833,414.333 528.833,415.667 531.5,417C 528.833,418.333 528.833,419.667 531.5,421C 528.833,422.333 528.833,423.667 531.5,425C 529.842,425.725 529.342,426.892 530,428.5C 530.704,426.273 531.871,425.94 533.5,427.5C 533.232,429.099 533.566,430.432 534.5,431.5C 535.029,436.822 535.529,442.156 536,447.5C 537.699,448.406 539.533,448.739 541.5,448.5C 541.833,455.833 542.167,463.167 542.5,470.5C 540.712,470.215 539.045,470.548 537.5,471.5C 537.624,472.107 537.957,472.44 538.5,472.5C 540.983,499.077 531.983,520.744 511.5,537.5C 510.07,537.579 508.736,537.246 507.5,536.5C 506.719,537.729 506.219,539.062 506,540.5C 504.818,538.656 503.651,536.823 502.5,535C 502.5,529.667 502.5,524.333 502.5,519C 503.01,517.174 503.844,517.007 505,518.5C 505.497,516.19 505.663,513.857 505.5,511.5C 512.389,502.542 515.723,492.376 515.5,481C 512.136,442.165 508.803,403.332 505.5,364.5C 507.39,364.297 508.89,364.963 510,366.5C 510.5,366 511,365.5 511.5,365C 510.905,297.611 510.572,229.944 510.5,162C 511.708,161.079 513.042,160.579 514.5,160.5 Z"/></g>
<g><path filter="url(#glow)" fill="#ffbe0b" style="opacity:0.7" d="M 488.5,212.5 C 486.836,213.949 486.002,215.949 486,218.5C 485.107,217.289 484.274,217.289 483.5,218.5C 483.5,221.167 483.5,223.833 483.5,226.5C 485.494,228.816 486.494,231.482 486.5,234.5C 488.415,234.216 490.081,234.549 491.5,235.5C 485.692,235.34 480.192,234.006 475,231.5C 468.841,249.498 456.341,259.498 437.5,261.5C 436.167,261.5 434.833,261.5 433.5,261.5C 433.5,254.167 433.5,246.833 433.5,239.5C 442.958,239.036 449.124,234.369 452,225.5C 452.333,220.167 452.667,214.833 453,209.5C 455.834,202.334 461.001,199.834 468.5,202C 474.818,206.324 481.484,209.824 488.5,212.5 Z"/></g>
<g><path filter="url(#glow)" fill="#ffbe0b" style="opacity:0.7" d="M 526.5,212.5 C 545.167,213.167 563.833,213.833 582.5,214.5C 568.833,214.5 555.167,214.5 541.5,214.5C 536.125,214.828 530.792,214.495 525.5,213.5C 525.624,212.893 525.957,212.56 526.5,212.5 Z"/></g>
<g><path filter="url(#glow)" fill="#ffbe0b" style="opacity:0.7" d="M 541.5,214.5 C 555.167,214.5 568.833,214.5 582.5,214.5C 586.764,214.344 590.764,215.011 594.5,216.5C 592.535,223.76 591.868,231.427 592.5,239.5C 587.571,238.178 582.571,237.178 577.5,236.5C 565.674,235.669 553.674,235.169 541.5,235C 541.736,228.215 541.736,221.382 541.5,214.5 Z"/></g>
<g><path filter="url(#glow)" fill="#ffbe0b" style="opacity:0.7" d="M 594.5,216.5 C 612.158,221.32 624.325,232.32 631,249.5C 633.197,255.817 634.363,262.317 634.5,269C 629.429,324.212 623.929,379.379 618,434.5C 614.28,449.314 605.446,459.647 591.5,465.5C 589.897,465.688 588.563,465.188 587.5,464C 588.833,458 588.833,452 587.5,446C 588.449,445.383 589.282,445.549 590,446.5C 590.497,444.19 590.663,441.857 590.5,439.5C 593.418,435.66 595.251,431.327 596,426.5C 601.068,373.99 606.234,321.49 611.5,269C 610.602,255.613 604.269,245.78 592.5,239.5C 591.868,231.427 592.535,223.76 594.5,216.5 Z"/></g>
<g><path filter="url(#glow)" fill="#ffbe0b" style="opacity:0.7" d="M 331.5,225.5 C 330.127,225.343 328.793,225.51 327.5,226C 327.5,236.667 327.5,247.333 327.5,258C 329.65,259.192 330.317,260.692 329.5,262.5C 325.147,259.146 321.48,255.146 318.5,250.5C 312.079,254.978 305.079,258.311 297.5,260.5C 306.851,274.899 310.351,290.566 308,307.5C 306.269,355.498 304.602,403.498 303,451.5C 301.399,464.578 294.899,474.245 283.5,480.5C 281.804,480.315 280.471,479.481 279.5,478C 279.714,470.107 279.714,461.94 279.5,453.5C 280.94,419.513 282.274,385.513 283.5,351.5C 284.163,349.527 284.496,347.361 284.5,345C 284.467,342.39 283.8,340.223 282.5,338.5C 281.373,337.878 280.373,337.045 279.5,336C 279.694,329.236 279.694,322.403 279.5,315.5C 280.853,314.476 281.52,313.143 281.5,311.5C 285.84,303.267 286.674,294.601 284,285.5C 279.061,272.572 271.727,261.239 262,251.5C 256.39,240.812 259.39,234.146 271,231.5C 275.778,233.472 280.612,235.306 285.5,237C 289.572,237.658 293.572,237.325 297.5,236C 304.772,231.726 311.772,227.059 318.5,222C 321.5,221.333 324.5,221.333 327.5,222C 329.324,222.66 330.657,223.827 331.5,225.5 Z"/></g>
<g><path filter="url(#glow)" fill="#ffbe0b" style="opacity:0.7" d="M 386.5,223.5 C 387.746,225.417 388.413,227.25 388.5,229C 387.5,229.333 386.5,229.667 385.5,230C 386.833,240 386.833,250 385.5,260C 386.563,261.188 387.897,261.688 389.5,261.5C 383.292,267.774 375.958,272.274 367.5,275C 375.178,280.511 379.678,288.011 381,297.5C 384.043,347.319 386.876,397.153 389.5,447C 388.603,462.125 382.603,474.792 371.5,485C 361.486,493.282 351.153,493.616 340.5,486C 336.332,482.998 332.665,479.498 329.5,475.5C 330.785,473.194 330.118,471.361 327.5,470C 328.833,433.333 328.833,396.667 327.5,360C 328.5,359 329.5,358 330.5,357C 329.757,339.141 329.423,320.308 329.5,300.5C 330.478,288.366 336.145,279.199 346.5,273C 339.796,270.991 334.129,267.491 329.5,262.5C 330.317,260.692 329.65,259.192 327.5,258C 327.5,247.333 327.5,236.667 327.5,226C 328.793,225.51 330.127,225.343 331.5,225.5C 335.022,233.369 339.689,240.536 345.5,247C 357.021,254.251 367.188,252.751 376,242.5C 380.05,236.394 383.55,230.061 386.5,223.5 Z M 355.5,294.5 C 356.793,295.842 357.626,297.509 358,299.5C 360.904,348.668 363.737,397.835 366.5,447C 366.125,455.931 362.291,462.764 355,467.5C 347.481,463.637 343.315,457.471 342.5,449C 345.77,400.51 348.937,352.01 352,303.5C 352.622,300.261 353.788,297.261 355.5,294.5 Z"/></g>
<g><path filter="url(#glow)" fill="#ffbe0b" style="opacity:0.7" d="M 433.5,239.5 C 433.5,246.833 433.5,254.167 433.5,261.5C 434.833,261.5 436.167,261.5 437.5,261.5C 422.586,264.475 409.752,260.475 399,249.5C 396.35,253.975 393.183,257.975 389.5,261.5C 387.897,261.688 386.563,261.188 385.5,260C 386.833,250 386.833,240 385.5,230C 386.5,229.667 387.5,229.333 388.5,229C 388.413,227.25 387.746,225.417 386.5,223.5C 389.376,216.686 394.376,214.519 401.5,217C 403.286,217.785 404.786,218.951 406,220.5C 409.796,227.625 414.963,233.458 421.5,238C 425.418,239.156 429.418,239.656 433.5,239.5 Z"/></g>
<g><path filter="url(#glow)" fill="#ffbe0b" style="opacity:0.7" d="M 487.5,138.5 C 488.827,142.136 488.827,145.803 487.5,149.5C 493.862,151.175 500.196,153.008 506.5,155C 509.621,156.306 512.287,158.14 514.5,160.5C 513.042,160.579 511.708,161.079 510.5,162C 510.572,229.944 510.905,297.611 511.5,365C 511,365.5 510.5,366 510,366.5C 508.89,364.963 507.39,364.297 505.5,364.5C 501.518,323.196 497.684,281.863 494,240.5C 493.95,238.256 493.117,236.589 491.5,235.5C 490.081,234.549 488.415,234.216 486.5,234.5C 486.494,231.482 485.494,228.816 483.5,226.5C 483.5,223.833 483.5,221.167 483.5,218.5C 484.274,217.289 485.107,217.289 486,218.5C 486.002,215.949 486.836,213.949 488.5,212.5C 500.089,212.082 506.423,205.915 507.5,194C 506.815,181.819 500.482,174.985 488.5,173.5C 486.631,172.835 484.631,172.169 482.5,171.5C 483.025,170.808 483.692,170.308 484.5,170C 481.833,168.667 481.833,167.333 484.5,166C 481.833,164.667 481.833,163.333 484.5,162C 481.833,160.667 481.833,159.333 484.5,158C 481.833,156.667 481.833,155.333 484.5,154C 481.833,152.667 481.833,151.333 484.5,150C 481.833,148 481.833,146 484.5,144C 481.833,142 481.833,140 484.5,138C 482.44,136.507 482.107,134.674 483.5,132.5C 485.352,134.219 486.686,136.219 487.5,138.5 Z"/></g>
<g><path filter="url(#glow)" fill="#ffbe0b" style="opacity:0.7" d="M 541.5,258.5 C 553.505,258.333 565.505,258.5 577.5,259C 582.887,260.895 585.887,264.729 586.5,270.5C 581.542,320.54 576.375,370.54 571,420.5C 569.223,422.79 567.056,424.457 564.5,425.5C 553.779,424.858 543.446,425.525 533.5,427.5C 531.871,425.94 530.704,426.273 530,428.5C 529.342,426.892 529.842,425.725 531.5,425C 528.833,423.667 528.833,422.333 531.5,421C 528.833,419.667 528.833,418.333 531.5,417C 528.833,415.667 528.833,414.333 531.5,413C 528.833,411.667 528.833,410.333 531.5,409C 530.296,407.647 529.629,405.981 529.5,404C 529.667,402.5 529.833,401 530,399.5C 530.278,400.416 530.778,401.082 531.5,401.5C 531.5,402.167 531.5,402.833 531.5,403.5C 534.482,404.165 537.648,404.498 541,404.5C 544.576,404.485 547.742,403.818 550.5,402.5C 553.837,363.468 557.503,324.468 561.5,285.5C 562.451,284.081 562.784,282.415 562.5,280.5C 555.833,280.5 549.167,280.5 542.5,280.5C 542.167,273.167 541.833,265.833 541.5,258.5 Z"/></g>
<g><path filter="url(#glow)" fill="#ffbe0b" style="opacity:0.7" d="M 438.5,271.5 C 436.833,271.5 435.167,271.5 433.5,271.5C 433.5,286.167 433.5,300.833 433.5,315.5C 432.518,308.519 431.018,301.519 429,294.5C 428.131,291.237 426.797,290.904 425,293.5C 423.876,305.112 423.376,316.779 423.5,328.5C 423.95,369.842 424.784,411.176 426,452.5C 428.022,457.02 431.189,460.353 435.5,462.5C 434.178,465.768 433.511,469.435 433.5,473.5C 433.572,477.756 434.239,481.756 435.5,485.5C 418.746,481.913 407.913,471.913 403,455.5C 401.174,401.515 400.507,347.515 401,293.5C 402.815,284.368 407.315,276.868 414.5,271C 422.744,266.198 430.744,266.365 438.5,271.5 Z"/></g>
<g><path filter="url(#glow)" fill="#ffbe0b" style="opacity:0.7" d="M 438.5,271.5 C 442.12,273.285 444.953,275.952 447,279.5C 450.522,285.399 452.855,291.732 454,298.5C 461.034,347.937 467.534,397.437 473.5,447C 472.564,463.862 464.564,476.195 449.5,484C 444.899,485.894 440.233,486.394 435.5,485.5C 434.239,481.756 433.572,477.756 433.5,473.5C 433.511,469.435 434.178,465.768 435.5,462.5C 442.995,462.522 447.828,458.855 450,451.5C 450.167,449.667 450.333,447.833 450.5,446C 444.692,402.51 439.025,359.01 433.5,315.5C 433.5,300.833 433.5,286.167 433.5,271.5C 435.167,271.5 436.833,271.5 438.5,271.5 Z"/></g>
<g><path filter="url(#glow)" fill="#ffbe0b" style="opacity:0.7" d="M 520.5,281.5 C 527.648,280.508 534.981,280.175 542.5,280.5C 549.167,280.5 555.833,280.5 562.5,280.5C 562.784,282.415 562.451,284.081 561.5,285.5C 561.5,284.167 561.5,282.833 561.5,281.5C 547.833,281.5 534.167,281.5 520.5,281.5 Z"/></g>
<g><path filter="url(#glow)" fill="#ffbe0b" style="opacity:0.7" d="M 281.5,311.5 C 281.52,313.143 280.853,314.476 279.5,315.5C 279.694,322.403 279.694,329.236 279.5,336C 280.373,337.045 281.373,337.878 282.5,338.5C 282.5,338.833 282.5,339.167 282.5,339.5C 277.638,341.399 272.805,343.399 268,345.5C 263.541,379.339 259.041,413.172 254.5,447C 255.62,454.789 259.787,460.289 267,463.5C 272.223,461.439 276.39,458.106 279.5,453.5C 279.714,461.94 279.714,470.107 279.5,478C 280.471,479.481 281.804,480.315 283.5,480.5C 271.602,488.705 259.935,488.205 248.5,479C 236.016,469.536 230.516,457.036 232,441.5C 236.215,409.497 240.381,377.497 244.5,345.5C 240.322,345.122 236.322,344.122 232.5,342.5C 231.51,335.515 231.177,328.681 231.5,322C 232.471,320.519 233.804,319.685 235.5,319.5C 249.171,324.956 262.504,324.122 275.5,317C 277.37,314.96 279.37,313.127 281.5,311.5 Z"/></g>
<g><path filter="url(#glow)" fill="#ffbe0b" style="opacity:0.7" d="M 235.5,319.5 C 233.804,319.685 232.471,320.519 231.5,322C 231.177,328.681 231.51,335.515 232.5,342.5C 227.215,341.108 222.382,338.774 218,335.5C 215.245,342.757 211.912,349.757 208,356.5C 202.856,400.083 198.856,443.75 196,487.5C 198.684,505.06 207.851,517.893 223.5,526C 311.166,526.5 398.833,526.667 486.5,526.5C 469.675,527.497 452.675,527.83 435.5,527.5C 418.833,527.5 402.167,527.5 385.5,527.5C 366.833,527.5 348.167,527.5 329.5,527.5C 313.5,527.5 297.5,527.5 281.5,527.5C 264.83,527.333 248.163,527.5 231.5,528C 232.833,534 232.833,540 231.5,546C 232.167,546.667 232.833,547.333 233.5,548C 249.497,548.5 265.497,548.667 281.5,548.5C 297.5,548.5 313.5,548.5 329.5,548.5C 348.167,548.5 366.833,548.5 385.5,548.5C 402.167,548.5 418.833,548.5 435.5,548.5C 448.344,548.171 461.011,548.505 473.5,549.5C 394.167,549.5 314.833,549.5 235.5,549.5C 235.5,552.5 235.5,555.5 235.5,558.5C 234.523,555.713 234.19,552.713 234.5,549.5C 233.448,549.351 232.448,549.517 231.5,550C 232.833,564 232.833,578 231.5,592C 233.65,593.192 234.317,594.692 233.5,596.5C 226.387,592.217 221.221,586.217 218,578.5C 213.456,568.323 211.456,557.656 212,546.5C 183.435,529.707 170.435,504.707 173,471.5C 176.257,438.835 179.424,406.169 182.5,373.5C 181.188,365.735 181.188,358.068 182.5,350.5C 184.017,350.489 185.184,349.823 186,348.5C 194.836,334.166 199.169,318.499 199,301.5C 202.588,293.567 208.422,291.4 216.5,295C 217.667,296.167 218.833,297.333 220,298.5C 221.973,307.958 227.14,314.958 235.5,319.5 Z"/></g>
<g><path filter="url(#glow)" fill="#ffbe0b" style="opacity:0.7" d="M 329.5,300.5 C 329.423,320.308 329.757,339.141 330.5,357C 329.5,358 328.5,359 327.5,360C 328.833,396.667 328.833,433.333 327.5,470C 330.118,471.361 330.785,473.194 329.5,475.5C 322.869,468.217 319.536,459.55 319.5,449.5C 322.529,399.657 325.862,349.991 329.5,300.5 Z"/></g>
<g><path filter="url(#glow)" fill="#ffbe0b" style="opacity:0.7" d="M 282.5,339.5 C 282.5,339.167 282.5,338.833 282.5,338.5C 283.8,340.223 284.467,342.39 284.5,345C 284.496,347.361 284.163,349.527 283.5,351.5C 283.817,347.298 283.483,343.298 282.5,339.5 Z"/></g>
<g><path filter="url(#glow)" fill="#ffbe0b" style="opacity:0.7" d="M 550.5,402.5 C 547.742,403.818 544.576,404.485 541,404.5C 537.648,404.498 534.482,404.165 531.5,403.5C 537.923,403.791 544.256,403.458 550.5,402.5 Z"/></g>
<g><path filter="url(#glow)" fill="#ffbe0b" style="opacity:0.7" d="M 564.5,425.5 C 554.681,426.494 544.681,426.827 534.5,426.5C 534.5,428.167 534.5,429.833 534.5,431.5C 533.566,430.432 533.232,429.099 533.5,427.5C 543.446,425.525 553.779,424.858 564.5,425.5 Z"/></g>
<g><path filter="url(#glow)" fill="#ffbe0b" style="opacity:0.7" d="M 590.5,439.5 C 590.663,441.857 590.497,444.19 590,446.5C 589.282,445.549 588.449,445.383 587.5,446C 588.833,452 588.833,458 587.5,464C 588.563,465.188 589.897,465.688 591.5,465.5C 586.033,468.762 580.033,470.429 573.5,470.5C 563.167,470.5 552.833,470.5 542.5,470.5C 542.167,463.167 541.833,455.833 541.5,448.5C 553.214,448.861 564.881,448.361 576.5,447C 581.639,445.265 586.306,442.765 590.5,439.5 Z"/></g>
<g><path filter="url(#glow)" fill="#ffbe0b" style="opacity:0.7" d="M 214.5,467.5 C 224.549,467.379 229.216,472.213 228.5,482C 229.756,495.245 237.089,501.245 250.5,500C 258.708,502.579 261.541,508.079 259,516.5C 255.848,521.322 251.348,523.322 245.5,522.5C 220.282,520.781 206.948,507.281 205.5,482C 205.377,475.053 208.377,470.22 214.5,467.5 Z"/></g>
<g><path filter="url(#glow)" fill="#ffbe0b" style="opacity:0.7" d="M 491.5,467.5 C 497.907,467.094 502.407,469.761 505,475.5C 507.649,497.716 498.816,513.216 478.5,522C 467.552,525.637 460.552,522.137 457.5,511.5C 459.448,502.507 465.115,498.34 474.5,499C 478.381,496.072 480.881,492.239 482,487.5C 480.527,478.335 483.693,471.669 491.5,467.5 Z"/></g>
<g><path filter="url(#glow)" fill="#ffbe0b" style="opacity:0.7" d="M 542.5,470.5 C 552.833,470.5 563.167,470.5 573.5,470.5C 561.833,471.167 550.167,471.833 538.5,472.5C 537.957,472.44 537.624,472.107 537.5,471.5C 539.045,470.548 540.712,470.215 542.5,470.5 Z"/></g>
<g><path filter="url(#glow)" fill="#ffbe0b" style="opacity:0.7" d="M 281.5,527.5 C 281.5,534.5 281.5,541.5 281.5,548.5C 265.497,548.667 249.497,548.5 233.5,548C 232.833,547.333 232.167,546.667 231.5,546C 232.833,540 232.833,534 231.5,528C 248.163,527.5 264.83,527.333 281.5,527.5 Z"/></g>
<g><path filter="url(#glow)" fill="#ffbe0b" style="opacity:0.7" d="M 281.5,527.5 C 297.5,527.5 313.5,527.5 329.5,527.5C 329.5,534.5 329.5,541.5 329.5,548.5C 313.5,548.5 297.5,548.5 281.5,548.5C 281.5,541.5 281.5,534.5 281.5,527.5 Z"/></g>
<g><path filter="url(#glow)" fill="#ffbe0b" style="opacity:0.7" d="M 329.5,527.5 C 348.167,527.5 366.833,527.5 385.5,527.5C 385.5,534.5 385.5,541.5 385.5,548.5C 366.833,548.5 348.167,548.5 329.5,548.5C 329.5,541.5 329.5,534.5 329.5,527.5 Z"/></g>
<g><path filter="url(#glow)" fill="#ffbe0b" style="opacity:0.7" d="M 385.5,527.5 C 402.167,527.5 418.833,527.5 435.5,527.5C 435.5,534.5 435.5,541.5 435.5,548.5C 418.833,548.5 402.167,548.5 385.5,548.5C 385.5,541.5 385.5,534.5 385.5,527.5 Z"/></g>
<g><path filter="url(#glow)" fill="#ffbe0b" style="opacity:0.7" d="M 505.5,511.5 C 505.663,513.857 505.497,516.19 505,518.5C 503.844,517.007 503.01,517.174 502.5,519C 502.5,524.333 502.5,529.667 502.5,535C 503.651,536.823 504.818,538.656 506,540.5C 506.219,539.062 506.719,537.729 507.5,536.5C 508.736,537.246 510.07,537.579 511.5,537.5C 507.238,540.974 502.571,543.974 497.5,546.5C 497.549,562.46 493.382,577.126 485,590.5C 481.429,595.031 476.929,598.198 471.5,600C 459.505,600.5 447.505,600.667 435.5,600.5C 435.833,593.167 436.167,585.833 436.5,578.5C 446.348,578.827 456.014,578.494 465.5,577.5C 471.248,569.192 473.915,559.859 473.5,549.5C 461.011,548.505 448.344,548.171 435.5,548.5C 435.5,541.5 435.5,534.5 435.5,527.5C 452.675,527.83 469.675,527.497 486.5,526.5C 493.72,522.612 500.053,517.612 505.5,511.5 Z"/></g>
<g><path filter="url(#glow)" fill="#ffbe0b" style="opacity:0.7" d="M 235.5,558.5 C 236.931,565.361 239.931,571.361 244.5,576.5C 256.12,578.479 268.12,579.146 280.5,578.5C 280.167,585.833 279.833,593.167 279.5,600.5C 266.496,600.667 253.496,600.5 240.5,600C 237.826,599.33 235.493,598.163 233.5,596.5C 234.317,594.692 233.65,593.192 231.5,592C 232.833,578 232.833,564 231.5,550C 232.448,549.517 233.448,549.351 234.5,549.5C 234.19,552.713 234.523,555.713 235.5,558.5 Z"/></g>
<g><path filter="url(#glow)" fill="#ffbe0b" style="opacity:0.7" d="M 244.5,576.5 C 318.096,577.497 391.762,577.83 465.5,577.5C 456.014,578.494 446.348,578.827 436.5,578.5C 419.833,578.5 403.167,578.5 386.5,578.5C 367.833,578.5 349.167,578.5 330.5,578.5C 313.833,578.5 297.167,578.5 280.5,578.5C 268.12,579.146 256.12,578.479 244.5,576.5 Z"/></g>
<g><path filter="url(#glow)" fill="#ffbe0b" style="opacity:0.7" d="M 280.5,578.5 C 297.167,578.5 313.833,578.5 330.5,578.5C 330.167,585.833 329.833,593.167 329.5,600.5C 312.833,600.5 296.167,600.5 279.5,600.5C 279.833,593.167 280.167,585.833 280.5,578.5 Z"/></g>
<g><path filter="url(#glow)" fill="#ffbe0b" style="opacity:0.7" d="M 330.5,578.5 C 349.167,578.5 367.833,578.5 386.5,578.5C 386.167,585.833 385.833,593.167 385.5,600.5C 366.833,600.5 348.167,600.5 329.5,600.5C 329.833,593.167 330.167,585.833 330.5,578.5 Z"/></g>
<g><path filter="url(#glow)" fill="#ffbe0b" style="opacity:0.7" d="M 386.5,578.5 C 403.167,578.5 419.833,578.5 436.5,578.5C 436.167,585.833 435.833,593.167 435.5,600.5C 418.833,600.5 402.167,600.5 385.5,600.5C 385.833,593.167 386.167,585.833 386.5,578.5 Z"/></g>

<g><path style="opacity:1" fill="#fee" d="M 409.5,58.5 C 405.545,58.707 402.712,57.0403 401,53.5C 400.5,54 400,54.5 399.5,55C 399.5,63 399.5,71 399.5,79C 399.833,79.1667 400.167,79.3333 400.5,79.5C 401.167,78.1667 401.833,76.8333 402.5,75.5C 403.308,75.8076 403.975,76.3076 404.5,77C 403.929,80.5479 403.596,84.3813 403.5,88.5C 398.444,76.626 389.444,69.7927 376.5,68C 360.952,66.5783 345.952,68.745 331.5,74.5C 329.804,74.3146 328.471,73.4813 327.5,72C 327.177,65.3187 327.51,58.4854 328.5,51.5C 350.206,43.3317 372.206,42.4984 394.5,49C 400.241,51.1923 405.241,54.359 409.5,58.5 Z"/></g>
<g><path style="opacity:1" fill="#fee" d="M 328.5,51.5 C 327.51,58.4854 327.177,65.3187 327.5,72C 328.471,73.4813 329.804,74.3146 331.5,74.5C 325.004,77.8136 319.171,82.1469 314,87.5C 309.206,95.5904 304.039,103.424 298.5,111C 291.003,114.559 284.669,113.059 279.5,106.5C 280.598,97.6177 280.598,88.7843 279.5,80C 280.094,79.5357 280.761,79.369 281.5,79.5C 284.075,80.5678 286.242,82.2345 288,84.5C 297.446,68.5571 310.946,57.5571 328.5,51.5 Z"/></g>
<g><path style="opacity:1" fill="#fee" d="M 409.5,58.5 C 419.547,67.5855 425.714,78.9188 428,92.5C 428.997,98.4611 429.663,104.461 430,110.5C 432.301,109.133 434.801,108.466 437.5,108.5C 437.082,109.222 436.416,109.722 435.5,110C 435.5,116.667 435.5,123.333 435.5,130C 436.044,130.717 436.711,131.217 437.5,131.5C 430.909,134.309 424.075,136.642 417,138.5C 409.644,137.976 405.811,133.976 405.5,126.5C 407.29,113.667 406.624,101 403.5,88.5C 403.596,84.3813 403.929,80.5479 404.5,77C 403.975,76.3076 403.308,75.8076 402.5,75.5C 401.833,76.8333 401.167,78.1667 400.5,79.5C 400.167,79.3333 399.833,79.1667 399.5,79C 399.5,71 399.5,63 399.5,55C 400,54.5 400.5,54 401,53.5C 402.712,57.0403 405.545,58.707 409.5,58.5 Z"/></g>
<g><path style="opacity:1" fill="#fee" d="M 281.5,79.5 C 280.761,79.369 280.094,79.5357 279.5,80C 280.598,88.7843 280.598,97.6177 279.5,106.5C 273.547,101.518 267.214,97.0183 260.5,93C 252.622,90.3989 244.622,89.8989 236.5,91.5C 234.571,91.7692 232.905,91.2692 231.5,90C 231.177,83.3187 231.51,76.4854 232.5,69.5C 250.542,64.9081 266.876,68.2414 281.5,79.5 Z"/></g>
<g><path style="opacity:1" fill="#fee" d="M 232.5,69.5 C 231.51,76.4854 231.177,83.3187 231.5,90C 232.905,91.2692 234.571,91.7692 236.5,91.5C 217.216,99.7156 209.05,114.382 212,135.5C 213.798,141.895 215.798,148.228 218,154.5C 219.769,161.126 217.603,165.96 211.5,169C 200.442,168.503 190.442,171.336 181.5,177.5C 181.5,168.833 181.5,160.167 181.5,151.5C 184.659,149.996 187.993,148.663 191.5,147.5C 183.238,118.788 190.904,95.2876 214.5,77C 220.056,73.426 226.056,70.926 232.5,69.5 Z"/></g>
<g><path style="opacity:1" fill="#fee" d="M 487.5,138.5 C 486.686,136.219 485.352,134.219 483.5,132.5C 482.107,134.674 482.44,136.507 484.5,138C 481.833,140 481.833,142 484.5,144C 481.833,146 481.833,148 484.5,150C 481.833,151.333 481.833,152.667 484.5,154C 481.833,155.333 481.833,156.667 484.5,158C 481.833,159.333 481.833,160.667 484.5,162C 481.833,163.333 481.833,164.667 484.5,166C 481.833,167.333 481.833,168.667 484.5,170C 483.692,170.308 483.025,170.808 482.5,171.5C 484.631,172.169 486.631,172.835 488.5,173.5C 482.95,173.237 477.45,173.57 472,174.5C 464.597,173.888 460.764,169.888 460.5,162.5C 462.26,156.383 463.927,150.216 465.5,144C 464.104,136.941 459.771,132.941 452.5,132C 447.509,130.497 442.509,130.33 437.5,131.5C 436.711,131.217 436.044,130.717 435.5,130C 435.5,123.333 435.5,116.667 435.5,110C 436.416,109.722 437.082,109.222 437.5,108.5C 454.178,106.448 468.678,111.115 481,122.5C 484.56,127.284 486.727,132.617 487.5,138.5 Z"/></g>
<g><path style="opacity:1" fill="#fee" d="M 181.5,151.5 C 181.5,160.167 181.5,168.833 181.5,177.5C 172.034,189.736 172.368,201.57 182.5,213C 187.334,216.252 192.334,219.252 197.5,222C 203.737,227.697 204.07,233.697 198.5,240C 189.247,242.71 180.747,246.877 173,252.5C 167.511,258.814 164.178,266.147 163,274.5C 161.791,293.83 163.791,312.83 169,331.5C 171.074,339.713 175.574,346.046 182.5,350.5C 181.188,358.068 181.188,365.735 182.5,373.5C 168.535,371.434 158.368,364.101 152,351.5C 141.016,323.959 137.35,295.626 141,266.5C 144.392,250.706 152.559,238.039 165.5,228.5C 149.651,211.064 147.151,191.73 158,170.5C 163.498,161.181 171.331,154.848 181.5,151.5 Z"/></g>
<g><path style="opacity:1" fill="#fee" d="M 514.5,160.5 C 519.15,162.985 522.65,166.652 525,171.5C 531.576,184.983 532.076,198.649 526.5,212.5C 525.957,212.56 525.624,212.893 525.5,213.5C 530.792,214.495 536.125,214.828 541.5,214.5C 541.736,221.382 541.736,228.215 541.5,235C 553.674,235.169 565.674,235.669 577.5,236.5C 557.156,236.167 536.822,236.5 516.5,237.5C 517.646,244.436 518.312,251.436 518.5,258.5C 526.167,258.5 533.833,258.5 541.5,258.5C 541.833,265.833 542.167,273.167 542.5,280.5C 534.981,280.175 527.648,280.508 520.5,281.5C 524.643,321.407 528.31,361.407 531.5,401.5C 530.778,401.082 530.278,400.416 530,399.5C 529.833,401 529.667,402.5 529.5,404C 529.629,405.981 530.296,407.647 531.5,409C 528.833,410.333 528.833,411.667 531.5,413C 528.833,414.333 528.833,415.667 531.5,417C 528.833,418.333 528.833,419.667 531.5,421C 528.833,422.333 528.833,423.667 531.5,425C 529.842,425.725 529.342,426.892 530,428.5C 530.704,426.273 531.871,425.94 533.5,427.5C 533.232,429.099 533.566,430.432 534.5,431.5C 535.029,436.822 535.529,442.156 536,447.5C 537.699,448.406 539.533,448.739 541.5,448.5C 541.833,455.833 542.167,463.167 542.5,470.5C 540.712,470.215 539.045,470.548 537.5,471.5C 537.624,472.107 537.957,472.44 538.5,472.5C 540.983,499.077 531.983,520.744 511.5,537.5C 510.07,537.579 508.736,537.246 507.5,536.5C 506.719,537.729 506.219,539.062 506,540.5C 504.818,538.656 503.651,536.823 502.5,535C 502.5,529.667 502.5,524.333 502.5,519C 503.01,517.174 503.844,517.007 505,518.5C 505.497,516.19 505.663,513.857 505.5,511.5C 512.389,502.542 515.723,492.376 515.5,481C 512.136,442.165 508.803,403.332 505.5,364.5C 507.39,364.297 508.89,364.963 510,366.5C 510.5,366 511,365.5 511.5,365C 510.905,297.611 510.572,229.944 510.5,162C 511.708,161.079 513.042,160.579 514.5,160.5 Z"/></g>
<g><path style="opacity:1" fill="#fee" d="M 488.5,212.5 C 486.836,213.949 486.002,215.949 486,218.5C 485.107,217.289 484.274,217.289 483.5,218.5C 483.5,221.167 483.5,223.833 483.5,226.5C 485.494,228.816 486.494,231.482 486.5,234.5C 488.415,234.216 490.081,234.549 491.5,235.5C 485.692,235.34 480.192,234.006 475,231.5C 468.841,249.498 456.341,259.498 437.5,261.5C 436.167,261.5 434.833,261.5 433.5,261.5C 433.5,254.167 433.5,246.833 433.5,239.5C 442.958,239.036 449.124,234.369 452,225.5C 452.333,220.167 452.667,214.833 453,209.5C 455.834,202.334 461.001,199.834 468.5,202C 474.818,206.324 481.484,209.824 488.5,212.5 Z"/></g>
<g><path style="opacity:1" fill="#fee" d="M 526.5,212.5 C 545.167,213.167 563.833,213.833 582.5,214.5C 568.833,214.5 555.167,214.5 541.5,214.5C 536.125,214.828 530.792,214.495 525.5,213.5C 525.624,212.893 525.957,212.56 526.5,212.5 Z"/></g>
<g><path style="opacity:1" fill="#fee" d="M 541.5,214.5 C 555.167,214.5 568.833,214.5 582.5,214.5C 586.764,214.344 590.764,215.011 594.5,216.5C 592.535,223.76 591.868,231.427 592.5,239.5C 587.571,238.178 582.571,237.178 577.5,236.5C 565.674,235.669 553.674,235.169 541.5,235C 541.736,228.215 541.736,221.382 541.5,214.5 Z"/></g>
<g><path style="opacity:1" fill="#fee" d="M 594.5,216.5 C 612.158,221.32 624.325,232.32 631,249.5C 633.197,255.817 634.363,262.317 634.5,269C 629.429,324.212 623.929,379.379 618,434.5C 614.28,449.314 605.446,459.647 591.5,465.5C 589.897,465.688 588.563,465.188 587.5,464C 588.833,458 588.833,452 587.5,446C 588.449,445.383 589.282,445.549 590,446.5C 590.497,444.19 590.663,441.857 590.5,439.5C 593.418,435.66 595.251,431.327 596,426.5C 601.068,373.99 606.234,321.49 611.5,269C 610.602,255.613 604.269,245.78 592.5,239.5C 591.868,231.427 592.535,223.76 594.5,216.5 Z"/></g>
<g><path style="opacity:1" fill="#fee" d="M 331.5,225.5 C 330.127,225.343 328.793,225.51 327.5,226C 327.5,236.667 327.5,247.333 327.5,258C 329.65,259.192 330.317,260.692 329.5,262.5C 325.147,259.146 321.48,255.146 318.5,250.5C 312.079,254.978 305.079,258.311 297.5,260.5C 306.851,274.899 310.351,290.566 308,307.5C 306.269,355.498 304.602,403.498 303,451.5C 301.399,464.578 294.899,474.245 283.5,480.5C 281.804,480.315 280.471,479.481 279.5,478C 279.714,470.107 279.714,461.94 279.5,453.5C 280.94,419.513 282.274,385.513 283.5,351.5C 284.163,349.527 284.496,347.361 284.5,345C 284.467,342.39 283.8,340.223 282.5,338.5C 281.373,337.878 280.373,337.045 279.5,336C 279.694,329.236 279.694,322.403 279.5,315.5C 280.853,314.476 281.52,313.143 281.5,311.5C 285.84,303.267 286.674,294.601 284,285.5C 279.061,272.572 271.727,261.239 262,251.5C 256.39,240.812 259.39,234.146 271,231.5C 275.778,233.472 280.612,235.306 285.5,237C 289.572,237.658 293.572,237.325 297.5,236C 304.772,231.726 311.772,227.059 318.5,222C 321.5,221.333 324.5,221.333 327.5,222C 329.324,222.66 330.657,223.827 331.5,225.5 Z"/></g>
<g><path style="opacity:1" fill="#fee" d="M 386.5,223.5 C 387.746,225.417 388.413,227.25 388.5,229C 387.5,229.333 386.5,229.667 385.5,230C 386.833,240 386.833,250 385.5,260C 386.563,261.188 387.897,261.688 389.5,261.5C 383.292,267.774 375.958,272.274 367.5,275C 375.178,280.511 379.678,288.011 381,297.5C 384.043,347.319 386.876,397.153 389.5,447C 388.603,462.125 382.603,474.792 371.5,485C 361.486,493.282 351.153,493.616 340.5,486C 336.332,482.998 332.665,479.498 329.5,475.5C 330.785,473.194 330.118,471.361 327.5,470C 328.833,433.333 328.833,396.667 327.5,360C 328.5,359 329.5,358 330.5,357C 329.757,339.141 329.423,320.308 329.5,300.5C 330.478,288.366 336.145,279.199 346.5,273C 339.796,270.991 334.129,267.491 329.5,262.5C 330.317,260.692 329.65,259.192 327.5,258C 327.5,247.333 327.5,236.667 327.5,226C 328.793,225.51 330.127,225.343 331.5,225.5C 335.022,233.369 339.689,240.536 345.5,247C 357.021,254.251 367.188,252.751 376,242.5C 380.05,236.394 383.55,230.061 386.5,223.5 Z M 355.5,294.5 C 356.793,295.842 357.626,297.509 358,299.5C 360.904,348.668 363.737,397.835 366.5,447C 366.125,455.931 362.291,462.764 355,467.5C 347.481,463.637 343.315,457.471 342.5,449C 345.77,400.51 348.937,352.01 352,303.5C 352.622,300.261 353.788,297.261 355.5,294.5 Z"/></g>
<g><path style="opacity:1" fill="#fee" d="M 433.5,239.5 C 433.5,246.833 433.5,254.167 433.5,261.5C 434.833,261.5 436.167,261.5 437.5,261.5C 422.586,264.475 409.752,260.475 399,249.5C 396.35,253.975 393.183,257.975 389.5,261.5C 387.897,261.688 386.563,261.188 385.5,260C 386.833,250 386.833,240 385.5,230C 386.5,229.667 387.5,229.333 388.5,229C 388.413,227.25 387.746,225.417 386.5,223.5C 389.376,216.686 394.376,214.519 401.5,217C 403.286,217.785 404.786,218.951 406,220.5C 409.796,227.625 414.963,233.458 421.5,238C 425.418,239.156 429.418,239.656 433.5,239.5 Z"/></g>
<g><path style="opacity:1" fill="#fee" d="M 487.5,138.5 C 488.827,142.136 488.827,145.803 487.5,149.5C 493.862,151.175 500.196,153.008 506.5,155C 509.621,156.306 512.287,158.14 514.5,160.5C 513.042,160.579 511.708,161.079 510.5,162C 510.572,229.944 510.905,297.611 511.5,365C 511,365.5 510.5,366 510,366.5C 508.89,364.963 507.39,364.297 505.5,364.5C 501.518,323.196 497.684,281.863 494,240.5C 493.95,238.256 493.117,236.589 491.5,235.5C 490.081,234.549 488.415,234.216 486.5,234.5C 486.494,231.482 485.494,228.816 483.5,226.5C 483.5,223.833 483.5,221.167 483.5,218.5C 484.274,217.289 485.107,217.289 486,218.5C 486.002,215.949 486.836,213.949 488.5,212.5C 500.089,212.082 506.423,205.915 507.5,194C 506.815,181.819 500.482,174.985 488.5,173.5C 486.631,172.835 484.631,172.169 482.5,171.5C 483.025,170.808 483.692,170.308 484.5,170C 481.833,168.667 481.833,167.333 484.5,166C 481.833,164.667 481.833,163.333 484.5,162C 481.833,160.667 481.833,159.333 484.5,158C 481.833,156.667 481.833,155.333 484.5,154C 481.833,152.667 481.833,151.333 484.5,150C 481.833,148 481.833,146 484.5,144C 481.833,142 481.833,140 484.5,138C 482.44,136.507 482.107,134.674 483.5,132.5C 485.352,134.219 486.686,136.219 487.5,138.5 Z"/></g>
<g><path style="opacity:1" fill="#fee" d="M 541.5,258.5 C 553.505,258.333 565.505,258.5 577.5,259C 582.887,260.895 585.887,264.729 586.5,270.5C 581.542,320.54 576.375,370.54 571,420.5C 569.223,422.79 567.056,424.457 564.5,425.5C 553.779,424.858 543.446,425.525 533.5,427.5C 531.871,425.94 530.704,426.273 530,428.5C 529.342,426.892 529.842,425.725 531.5,425C 528.833,423.667 528.833,422.333 531.5,421C 528.833,419.667 528.833,418.333 531.5,417C 528.833,415.667 528.833,414.333 531.5,413C 528.833,411.667 528.833,410.333 531.5,409C 530.296,407.647 529.629,405.981 529.5,404C 529.667,402.5 529.833,401 530,399.5C 530.278,400.416 530.778,401.082 531.5,401.5C 531.5,402.167 531.5,402.833 531.5,403.5C 534.482,404.165 537.648,404.498 541,404.5C 544.576,404.485 547.742,403.818 550.5,402.5C 553.837,363.468 557.503,324.468 561.5,285.5C 562.451,284.081 562.784,282.415 562.5,280.5C 555.833,280.5 549.167,280.5 542.5,280.5C 542.167,273.167 541.833,265.833 541.5,258.5 Z"/></g>
<g><path style="opacity:1" fill="#fee" d="M 438.5,271.5 C 436.833,271.5 435.167,271.5 433.5,271.5C 433.5,286.167 433.5,300.833 433.5,315.5C 432.518,308.519 431.018,301.519 429,294.5C 428.131,291.237 426.797,290.904 425,293.5C 423.876,305.112 423.376,316.779 423.5,328.5C 423.95,369.842 424.784,411.176 426,452.5C 428.022,457.02 431.189,460.353 435.5,462.5C 434.178,465.768 433.511,469.435 433.5,473.5C 433.572,477.756 434.239,481.756 435.5,485.5C 418.746,481.913 407.913,471.913 403,455.5C 401.174,401.515 400.507,347.515 401,293.5C 402.815,284.368 407.315,276.868 414.5,271C 422.744,266.198 430.744,266.365 438.5,271.5 Z"/></g>
<g><path style="opacity:1" fill="#fee" d="M 438.5,271.5 C 442.12,273.285 444.953,275.952 447,279.5C 450.522,285.399 452.855,291.732 454,298.5C 461.034,347.937 467.534,397.437 473.5,447C 472.564,463.862 464.564,476.195 449.5,484C 444.899,485.894 440.233,486.394 435.5,485.5C 434.239,481.756 433.572,477.756 433.5,473.5C 433.511,469.435 434.178,465.768 435.5,462.5C 442.995,462.522 447.828,458.855 450,451.5C 450.167,449.667 450.333,447.833 450.5,446C 444.692,402.51 439.025,359.01 433.5,315.5C 433.5,300.833 433.5,286.167 433.5,271.5C 435.167,271.5 436.833,271.5 438.5,271.5 Z"/></g>
<g><path style="opacity:1" fill="#fee" d="M 520.5,281.5 C 527.648,280.508 534.981,280.175 542.5,280.5C 549.167,280.5 555.833,280.5 562.5,280.5C 562.784,282.415 562.451,284.081 561.5,285.5C 561.5,284.167 561.5,282.833 561.5,281.5C 547.833,281.5 534.167,281.5 520.5,281.5 Z"/></g>
<g><path style="opacity:1" fill="#fee" d="M 281.5,311.5 C 281.52,313.143 280.853,314.476 279.5,315.5C 279.694,322.403 279.694,329.236 279.5,336C 280.373,337.045 281.373,337.878 282.5,338.5C 282.5,338.833 282.5,339.167 282.5,339.5C 277.638,341.399 272.805,343.399 268,345.5C 263.541,379.339 259.041,413.172 254.5,447C 255.62,454.789 259.787,460.289 267,463.5C 272.223,461.439 276.39,458.106 279.5,453.5C 279.714,461.94 279.714,470.107 279.5,478C 280.471,479.481 281.804,480.315 283.5,480.5C 271.602,488.705 259.935,488.205 248.5,479C 236.016,469.536 230.516,457.036 232,441.5C 236.215,409.497 240.381,377.497 244.5,345.5C 240.322,345.122 236.322,344.122 232.5,342.5C 231.51,335.515 231.177,328.681 231.5,322C 232.471,320.519 233.804,319.685 235.5,319.5C 249.171,324.956 262.504,324.122 275.5,317C 277.37,314.96 279.37,313.127 281.5,311.5 Z"/></g>
<g><path style="opacity:1" fill="#fee" d="M 235.5,319.5 C 233.804,319.685 232.471,320.519 231.5,322C 231.177,328.681 231.51,335.515 232.5,342.5C 227.215,341.108 222.382,338.774 218,335.5C 215.245,342.757 211.912,349.757 208,356.5C 202.856,400.083 198.856,443.75 196,487.5C 198.684,505.06 207.851,517.893 223.5,526C 311.166,526.5 398.833,526.667 486.5,526.5C 469.675,527.497 452.675,527.83 435.5,527.5C 418.833,527.5 402.167,527.5 385.5,527.5C 366.833,527.5 348.167,527.5 329.5,527.5C 313.5,527.5 297.5,527.5 281.5,527.5C 264.83,527.333 248.163,527.5 231.5,528C 232.833,534 232.833,540 231.5,546C 232.167,546.667 232.833,547.333 233.5,548C 249.497,548.5 265.497,548.667 281.5,548.5C 297.5,548.5 313.5,548.5 329.5,548.5C 348.167,548.5 366.833,548.5 385.5,548.5C 402.167,548.5 418.833,548.5 435.5,548.5C 448.344,548.171 461.011,548.505 473.5,549.5C 394.167,549.5 314.833,549.5 235.5,549.5C 235.5,552.5 235.5,555.5 235.5,558.5C 234.523,555.713 234.19,552.713 234.5,549.5C 233.448,549.351 232.448,549.517 231.5,550C 232.833,564 232.833,578 231.5,592C 233.65,593.192 234.317,594.692 233.5,596.5C 226.387,592.217 221.221,586.217 218,578.5C 213.456,568.323 211.456,557.656 212,546.5C 183.435,529.707 170.435,504.707 173,471.5C 176.257,438.835 179.424,406.169 182.5,373.5C 181.188,365.735 181.188,358.068 182.5,350.5C 184.017,350.489 185.184,349.823 186,348.5C 194.836,334.166 199.169,318.499 199,301.5C 202.588,293.567 208.422,291.4 216.5,295C 217.667,296.167 218.833,297.333 220,298.5C 221.973,307.958 227.14,314.958 235.5,319.5 Z"/></g>
<g><path style="opacity:1" fill="#fee" d="M 329.5,300.5 C 329.423,320.308 329.757,339.141 330.5,357C 329.5,358 328.5,359 327.5,360C 328.833,396.667 328.833,433.333 327.5,470C 330.118,471.361 330.785,473.194 329.5,475.5C 322.869,468.217 319.536,459.55 319.5,449.5C 322.529,399.657 325.862,349.991 329.5,300.5 Z"/></g>
<g><path style="opacity:1" fill="#fee" d="M 282.5,339.5 C 282.5,339.167 282.5,338.833 282.5,338.5C 283.8,340.223 284.467,342.39 284.5,345C 284.496,347.361 284.163,349.527 283.5,351.5C 283.817,347.298 283.483,343.298 282.5,339.5 Z"/></g>
<g><path style="opacity:1" fill="#fee" d="M 550.5,402.5 C 547.742,403.818 544.576,404.485 541,404.5C 537.648,404.498 534.482,404.165 531.5,403.5C 537.923,403.791 544.256,403.458 550.5,402.5 Z"/></g>
<g><path style="opacity:1" fill="#fee" d="M 564.5,425.5 C 554.681,426.494 544.681,426.827 534.5,426.5C 534.5,428.167 534.5,429.833 534.5,431.5C 533.566,430.432 533.232,429.099 533.5,427.5C 543.446,425.525 553.779,424.858 564.5,425.5 Z"/></g>
<g><path style="opacity:1" fill="#fee" d="M 590.5,439.5 C 590.663,441.857 590.497,444.19 590,446.5C 589.282,445.549 588.449,445.383 587.5,446C 588.833,452 588.833,458 587.5,464C 588.563,465.188 589.897,465.688 591.5,465.5C 586.033,468.762 580.033,470.429 573.5,470.5C 563.167,470.5 552.833,470.5 542.5,470.5C 542.167,463.167 541.833,455.833 541.5,448.5C 553.214,448.861 564.881,448.361 576.5,447C 581.639,445.265 586.306,442.765 590.5,439.5 Z"/></g>
<g><path style="opacity:1" fill="#fee" d="M 214.5,467.5 C 224.549,467.379 229.216,472.213 228.5,482C 229.756,495.245 237.089,501.245 250.5,500C 258.708,502.579 261.541,508.079 259,516.5C 255.848,521.322 251.348,523.322 245.5,522.5C 220.282,520.781 206.948,507.281 205.5,482C 205.377,475.053 208.377,470.22 214.5,467.5 Z"/></g>
<g><path style="opacity:1" fill="#fee" d="M 491.5,467.5 C 497.907,467.094 502.407,469.761 505,475.5C 507.649,497.716 498.816,513.216 478.5,522C 467.552,525.637 460.552,522.137 457.5,511.5C 459.448,502.507 465.115,498.34 474.5,499C 478.381,496.072 480.881,492.239 482,487.5C 480.527,478.335 483.693,471.669 491.5,467.5 Z"/></g>
<g><path style="opacity:1" fill="#fee" d="M 542.5,470.5 C 552.833,470.5 563.167,470.5 573.5,470.5C 561.833,471.167 550.167,471.833 538.5,472.5C 537.957,472.44 537.624,472.107 537.5,471.5C 539.045,470.548 540.712,470.215 542.5,470.5 Z"/></g>
<g><path style="opacity:1" fill="#fee" d="M 281.5,527.5 C 281.5,534.5 281.5,541.5 281.5,548.5C 265.497,548.667 249.497,548.5 233.5,548C 232.833,547.333 232.167,546.667 231.5,546C 232.833,540 232.833,534 231.5,528C 248.163,527.5 264.83,527.333 281.5,527.5 Z"/></g>
<g><path style="opacity:1" fill="#fee" d="M 281.5,527.5 C 297.5,527.5 313.5,527.5 329.5,527.5C 329.5,534.5 329.5,541.5 329.5,548.5C 313.5,548.5 297.5,548.5 281.5,548.5C 281.5,541.5 281.5,534.5 281.5,527.5 Z"/></g>
<g><path style="opacity:1" fill="#fee" d="M 329.5,527.5 C 348.167,527.5 366.833,527.5 385.5,527.5C 385.5,534.5 385.5,541.5 385.5,548.5C 366.833,548.5 348.167,548.5 329.5,548.5C 329.5,541.5 329.5,534.5 329.5,527.5 Z"/></g>
<g><path style="opacity:1" fill="#fee" d="M 385.5,527.5 C 402.167,527.5 418.833,527.5 435.5,527.5C 435.5,534.5 435.5,541.5 435.5,548.5C 418.833,548.5 402.167,548.5 385.5,548.5C 385.5,541.5 385.5,534.5 385.5,527.5 Z"/></g>
<g><path style="opacity:1" fill="#fee" d="M 505.5,511.5 C 505.663,513.857 505.497,516.19 505,518.5C 503.844,517.007 503.01,517.174 502.5,519C 502.5,524.333 502.5,529.667 502.5,535C 503.651,536.823 504.818,538.656 506,540.5C 506.219,539.062 506.719,537.729 507.5,536.5C 508.736,537.246 510.07,537.579 511.5,537.5C 507.238,540.974 502.571,543.974 497.5,546.5C 497.549,562.46 493.382,577.126 485,590.5C 481.429,595.031 476.929,598.198 471.5,600C 459.505,600.5 447.505,600.667 435.5,600.5C 435.833,593.167 436.167,585.833 436.5,578.5C 446.348,578.827 456.014,578.494 465.5,577.5C 471.248,569.192 473.915,559.859 473.5,549.5C 461.011,548.505 448.344,548.171 435.5,548.5C 435.5,541.5 435.5,534.5 435.5,527.5C 452.675,527.83 469.675,527.497 486.5,526.5C 493.72,522.612 500.053,517.612 505.5,511.5 Z"/></g>
<g><path style="opacity:1" fill="#fee" d="M 235.5,558.5 C 236.931,565.361 239.931,571.361 244.5,576.5C 256.12,578.479 268.12,579.146 280.5,578.5C 280.167,585.833 279.833,593.167 279.5,600.5C 266.496,600.667 253.496,600.5 240.5,600C 237.826,599.33 235.493,598.163 233.5,596.5C 234.317,594.692 233.65,593.192 231.5,592C 232.833,578 232.833,564 231.5,550C 232.448,549.517 233.448,549.351 234.5,549.5C 234.19,552.713 234.523,555.713 235.5,558.5 Z"/></g>
<g><path style="opacity:1" fill="#fee" d="M 244.5,576.5 C 318.096,577.497 391.762,577.83 465.5,577.5C 456.014,578.494 446.348,578.827 436.5,578.5C 419.833,578.5 403.167,578.5 386.5,578.5C 367.833,578.5 349.167,578.5 330.5,578.5C 313.833,578.5 297.167,578.5 280.5,578.5C 268.12,579.146 256.12,578.479 244.5,576.5 Z"/></g>
<g><path style="opacity:1" fill="#fee" d="M 280.5,578.5 C 297.167,578.5 313.833,578.5 330.5,578.5C 330.167,585.833 329.833,593.167 329.5,600.5C 312.833,600.5 296.167,600.5 279.5,600.5C 279.833,593.167 280.167,585.833 280.5,578.5 Z"/></g>
<g><path style="opacity:1" fill="#fee" d="M 330.5,578.5 C 349.167,578.5 367.833,578.5 386.5,578.5C 386.167,585.833 385.833,593.167 385.5,600.5C 366.833,600.5 348.167,600.5 329.5,600.5C 329.833,593.167 330.167,585.833 330.5,578.5 Z"/></g>
<g><path style="opacity:1" fill="#fee" d="M 386.5,578.5 C 403.167,578.5 419.833,578.5 436.5,578.5C 436.167,585.833 435.833,593.167 435.5,600.5C 418.833,600.5 402.167,600.5 385.5,600.5C 385.833,593.167 386.167,585.833 386.5,578.5 Z"/></g>

</svg>
